<svg height="512pt" viewBox="-96 0 512 512.02133" width="512pt" xmlns="http://www.w3.org/2000/svg"><path d="m318.773438 457.75c-14.292969-255.210938-148.566407-451.117188-150.015626-453.183594-1.984374-2.859375-5.25-4.566406-8.746093-4.566406-3.476563 0-6.742188 1.707031-8.746094 4.566406-1.496094 2.152344-151.2539062 219.945313-151.2539062 496.765625 0 4.929688 3.3906252 9.261719 8.2109372 10.371094.832032.210937 1.644532.296875 2.453125.296875 3.992188 0 7.703125-2.21875 9.539063-5.886719 25.171875-50.347656 128.253906-164.78125 203.796875-164.78125 50.453125 0 74.21875 49.898438 74.664062 156.929688v.148437.148438.023437 2.152344.023437.171876.039062.152344.042968.191407c0 5.886719 4.78125 10.664062 10.667969 10.664062s10.667969-4.777343 10.667969-10.664062c0-10.496094 0-26.007813-1.238281-43.605469zm0 0" fill="#ffc107"/><path d="m309.34375 512c-5.886719 0-10.667969-4.777344-10.667969-10.667969 0-230.503906-106.964843-419.945312-138.664062-471.015625-31.746094 51.007813-138.667969 240-138.667969 471.015625 0 5.890625-4.777344 10.667969-10.667969 10.667969-5.886719 0-10.6640622-4.777344-10.6640622-10.667969 0-276.820312 149.7382812-494.613281 151.2539062-496.765625 2.003906-2.859375 5.246094-4.566406 8.746094-4.566406 3.496093 0 6.742187 1.707031 8.746093 4.585938 1.515626 2.15625 151.253907 220.609374 151.253907 496.746093 0 5.890625-4.78125 10.667969-10.667969 10.667969zm0 0"/><path d="m10.675781 512c-1.597656 0-3.21875-.363281-4.753906-1.128906-5.269531-2.648438-7.40625-9.046875-4.78125-14.316406 25.621094-51.242188 135.445313-176.554688 222.871094-176.554688 96 0 96 136.46875 96 181.332031 0 5.890625-4.78125 10.667969-10.667969 10.667969s-10.667969-4.777344-10.667969-10.667969c0-109.160156-23.722656-160-74.664062-160-75.542969 0-178.625 114.433594-203.796875 164.78125-1.878906 3.710938-5.632813 5.886719-9.539063 5.886719zm0 0"/><path d="m138.675781 277.332031c-1.597656 0-3.21875-.363281-4.753906-1.128906-5.269531-2.644531-7.40625-9.046875-4.78125-14.316406l20.203125-40.425781v-82.792969c0-5.890625 4.777344-10.667969 10.667969-10.667969 5.886719 0 10.664062 4.777344 10.664062 10.667969v85.332031c0 1.644531-.382812 3.285156-1.128906 4.777344l-21.332031 42.667968c-1.878906 3.710938-5.632813 5.886719-9.539063 5.886719zm0 0"/><path d="m181.34375 277.332031c-3.457031 0-6.828125-1.664062-8.894531-4.757812l-19.050781-28.5625-38.65625-9.664063c-4.820313-1.195312-8.066407-5.546875-8.066407-10.328125 0-.871093.109375-1.726562.320313-2.601562 1.410156-5.738281 7.167968-9.171875 12.929687-7.765625l40.085938 10.007812 40.085937-10.027344c5.695313-1.367187 11.496094 2.046876 12.925782 7.765626 1.429687 5.714843-2.046876 11.496093-7.765626 12.925781l-27.988281 7 12.929688 19.390625c3.261719 4.886718 1.9375 11.519531-2.96875 14.785156-1.789063 1.257812-3.839844 1.832031-5.886719 1.832031zm0 0"/></svg>